0
SECTION
2
HEADER
9
$ACADVER
1
AC1009
9
$INSBASE
10
0.000
20
0.000
30
0.000
9
$EXTMIN
10
7513938.660
20
4691208.600
9
$EXTMAX
10
7513938.660
20
4691208.600
0
ENDSEC
0
SECTION
2
TABLES
0
TABLE
2
LTYPE
70
1
0
LTYPE
2
continuous
70
64
3
Solid line
72
65
73
0
40
0.000
0
ENDTAB
0
TABLE
2
LAYER
70
1
0
LAYER
2
Parcela
70
64
62
7
6
continuous
0
ENDTAB
0
TABLE
2
STYLE
70
1
0
STYLE
2
ANNOTATIVE
70
0
40
0
41
40
50
50
71
0
42
1
3
ARIAL.TTF
4

0
ENDTAB
0
TABLE
2
VIEW
70
0
0
ENDTAB
0
ENDSEC
0
SECTION
2
BLOCKS
0
ENDSEC
0
SECTION
2
ENTITIES
0
POLYLINE
66
1
8
Parcela Baze
70
0
10
7517944.528
20
4692701.235
0
VERTEX
8
Parcela Baze
10
7517944.528
20
4692701.235
0
VERTEX
8
Parcela Baze
10
7517945.313
20
4692700.273
0
VERTEX
8
Parcela Baze
10
7517947.683
20
4692697.883
0
VERTEX
8
Parcela Baze
10
7517949.943
20
4692696.013
0
VERTEX
8
Parcela Baze
10
7517962.053
20
4692671.542
0
VERTEX
8
Parcela Baze
10
7517961.392
20
4692671.484
0
VERTEX
8
Parcela Baze
10
7517922.442
20
4692663.486
0
VERTEX
8
Parcela Baze
10
7517877.938
20
4692655.235
0
VERTEX
8
Parcela Baze
10
7517871.355
20
4692684.435
0
VERTEX
8
Parcela Baze
10
7517857.732
20
4692682.503
0
VERTEX
8
Parcela Baze
10
7517842.980
20
4692728.850
0
VERTEX
8
Parcela Baze
10
7517874.269
20
4692745.089
0
VERTEX
8
Parcela Baze
10
7517874.914
20
4692730.555
0
VERTEX
8
Parcela Baze
10
7517878.532
20
4692721.977
0
VERTEX
8
Parcela Baze
10
7517878.554
20
4692721.925
0
VERTEX
8
Parcela Baze
10
7517892.943
20
4692714.245
0
VERTEX
8
Parcela Baze
10
7517914.842
20
4692715.249
0
VERTEX
8
Parcela Baze
10
7517935.223
20
4692706.635
0
VERTEX
8
Parcela Baze
10
7517943.543
20
4692702.973
0
VERTEX
8
Parcela Baze
10
7517944.528
20
4692701.235
0
SEQEND
0
TEXT
8
Nr Parceles Baze
10
7517897.676
20
4692693.842
40
0.800000
1
1997-0
0
TEXT
8
Nr e Pikave Gjeodezike te Parceles Baze
10
7517922.442
20
4692663.486
40
0.800000
1
889
0
POINT
8
Pikat
10
7517922.442
20
4692663.486
0
TEXT
8
Nr e Pikave Gjeodezike te Parceles Baze
10
7517961.392
20
4692671.484
40
0.800000
1
890
0
POINT
8
Pikat
10
7517961.392
20
4692671.484
0
TEXT
8
Nr e Pikave Gjeodezike te Parceles Baze
10
7517962.053
20
4692671.542
40
0.800000
1
891
0
POINT
8
Pikat
10
7517962.053
20
4692671.542
0
TEXT
8
Nr e Pikave Gjeodezike te Parceles Baze
10
7517874.914
20
4692730.555
40
0.800000
1
2135
0
POINT
8
Pikat
10
7517874.914
20
4692730.555
0
TEXT
8
Nr e Pikave Gjeodezike te Parceles Baze
10
7517878.554
20
4692721.925
40
0.800000
1
2136
0
POINT
8
Pikat
10
7517878.554
20
4692721.925
0
TEXT
8
Nr e Pikave Gjeodezike te Parceles Baze
10
7517892.943
20
4692714.245
40
0.800000
1
2137
0
POINT
8
Pikat
10
7517892.943
20
4692714.245
0
TEXT
8
Nr e Pikave Gjeodezike te Parceles Baze
10
7517935.223
20
4692706.635
40
0.800000
1
2139
0
POINT
8
Pikat
10
7517935.223
20
4692706.635
0
TEXT
8
Nr e Pikave Gjeodezike te Parceles Baze
10
7517943.543
20
4692702.973
40
0.800000
1
2140
0
POINT
8
Pikat
10
7517943.543
20
4692702.973
0
TEXT
8
Nr e Pikave Gjeodezike te Parceles Baze
10
7517944.528
20
4692701.235
40
0.800000
1
2141
0
POINT
8
Pikat
10
7517944.528
20
4692701.235
0
TEXT
8
Nr e Pikave Gjeodezike te Parceles Baze
10
7517945.313
20
4692700.273
40
0.800000
1
2142
0
POINT
8
Pikat
10
7517945.313
20
4692700.273
0
TEXT
8
Nr e Pikave Gjeodezike te Parceles Baze
10
7517947.683
20
4692697.883
40
0.800000
1
2143
0
POINT
8
Pikat
10
7517947.683
20
4692697.883
0
TEXT
8
Nr e Pikave Gjeodezike te Parceles Baze
10
7517949.943
20
4692696.013
40
0.800000
1
2144
0
POINT
8
Pikat
10
7517949.943
20
4692696.013
0
TEXT
8
Nr e Pikave Gjeodezike te Parceles Baze
10
7517857.732
20
4692682.503
40
0.800000
1
7778
0
POINT
8
Pikat
10
7517857.732
20
4692682.503
0
TEXT
8
Nr e Pikave Gjeodezike te Parceles Baze
10
7517871.355
20
4692684.435
40
0.800000
1
7779
0
POINT
8
Pikat
10
7517871.355
20
4692684.435
0
TEXT
8
Nr e Pikave Gjeodezike te Parceles Baze
10
7517877.938
20
4692655.235
40
0.800000
1
7780
0
POINT
8
Pikat
10
7517877.938
20
4692655.235
0
TEXT
8
Nr e Pikave Gjeodezike te Parceles Baze
10
7517878.532
20
4692721.977
40
0.800000
1
8510
0
POINT
8
Pikat
10
7517878.532
20
4692721.977
0
TEXT
8
Nr e Pikave Gjeodezike te Parceles Baze
10
7517874.269
20
4692745.089
40
0.800000
1
7695
0
POINT
8
Pikat
10
7517874.269
20
4692745.089
0
TEXT
8
Nr e Pikave Gjeodezike te Parceles Baze
10
7517914.842
20
4692715.249
40
0.800000
1
7698
0
POINT
8
Pikat
10
7517914.842
20
4692715.249
0
TEXT
8
Nr e Pikave Gjeodezike te Parceles Baze
10
7517842.980
20
4692728.850
40
0.800000
1
7781
0
POINT
8
Pikat
10
7517842.980
20
4692728.850
0
ENDSEC
0
EOF
